{
  "accessors": [
    {
      "bufferView": 2,
      "componentType": 5126,
      "count": 2032,
      "max": [
        0.2254132628440857,
        0.48439884185791016,
        0.3190869987010956
      ],
      "min": [
        -0.2254132628440857,
        0.07802654057741165,
        -0.3377082049846649
      ],
      "type": "VEC3"
    },
    {
      "bufferView": 2,
      "byteOffset": 24384,
      "componentType": 5126,
      "count": 2032,
      "max": [
        1.0,
        1.0,
        1.0
      ],
      "min": [
        -1.0,
        -1.0,
        -1.0
      ],
      "type": "VEC3"
    },
    {
      "bufferView": 1,
      "componentType": 5126,
      "count": 2032,
      "max": [
        0.8204145431518555,
        0.9835503101348877
      ],
      "min": [
        0.07489386200904846,
        0.3306511640548706
      ],
      "type": "VEC2"
    },
    {
      "bufferView": 1,
      "byteOffset": 16256,
      "componentType": 5126,
      "count": 2032,
      "max": [
        0.8204145431518555,
        0.9835503101348877
      ],
      "min": [
        0.07489386200904846,
        0.3306511640548706
      ],
      "type": "VEC2"
    },
    {
      "bufferView": 1,
      "byteOffset": 32512,
      "componentType": 5126,
      "count": 2032,
      "max": [
        0.8204145431518555,
        0.9835503101348877
      ],
      "min": [
        0.07489386200904846,
        0.3306511640548706
      ],
      "type": "VEC2"
    },
    {
      "bufferView": 1,
      "byteOffset": 48768,
      "componentType": 5126,
      "count": 2032,
      "max": [
        0.8204145431518555,
        0.9835503101348877
      ],
      "min": [
        0.07489386200904846,
        0.3306511640548706
      ],
      "type": "VEC2"
    },
    {
      "bufferView": 0,
      "componentType": 5125,
      "count": 6426,
      "type": "SCALAR"
    },
    {
      "bufferView": 2,
      "byteOffset": 48768,
      "componentType": 5126,
      "count": 364,
      "max": [
        0.028709543868899345,
        0.04001482576131821,
        0.03758416697382927
      ],
      "min": [
        -0.8332626223564148,
        -0.049010612070560455,
        -0.11629396677017212
      ],
      "type": "VEC3"
    },
    {
      "bufferView": 2,
      "byteOffset": 53136,
      "componentType": 5126,
      "count": 364,
      "max": [
        1.0,
        1.0,
        1.0
      ],
      "min": [
        -1.0,
        -1.0,
        -1.0
      ],
      "type": "VEC3"
    },
    {
      "bufferView": 1,
      "byteOffset": 65024,
      "componentType": 5126,
      "count": 364,
      "max": [
        0.5846890211105347,
        0.9939522743225098
      ],
      "min": [
        0.1458975374698639,
        0.2882937490940094
      ],
      "type": "VEC2"
    },
    {
      "bufferView": 1,
      "byteOffset": 67936,
      "componentType": 5126,
      "count": 364,
      "max": [
        0.5846890211105347,
        0.9939522743225098
      ],
      "min": [
        0.1458975374698639,
        0.2882937490940094
      ],
      "type": "VEC2"
    },
    {
      "bufferView": 1,
      "byteOffset": 70848,
      "componentType": 5126,
      "count": 364,
      "max": [
        0.5846890211105347,
        0.9939522743225098
      ],
      "min": [
        0.1458975374698639,
        0.2882937490940094
      ],
      "type": "VEC2"
    },
    {
      "bufferView": 1,
      "byteOffset": 73760,
      "componentType": 5126,
      "count": 364,
      "max": [
        0.5846890211105347,
        0.9939522743225098
      ],
      "min": [
        0.1458975374698639,
        0.2882937490940094
      ],
      "type": "VEC2"
    },
    {
      "bufferView": 0,
      "byteOffset": 25704,
      "componentType": 5125,
      "count": 1056,
      "type": "SCALAR"
    },
    {
      "bufferView": 2,
      "byteOffset": 57504,
      "componentType": 5126,
      "count": 544,
      "max": [
        0.21259509027004242,
        0.0953492820262909,
        0.022154897451400757
      ],
      "min": [
        -0.21259509027004242,
        -0.03868468478322029,
        -0.61738121509552
      ],
      "type": "VEC3"
    },
    {
      "bufferView": 2,
      "byteOffset": 64032,
      "componentType": 5126,
      "count": 544,
      "max": [
        1.0,
        0.9999998807907104,
        1.0
      ],
      "min": [
        -1.0,
        -1.0,
        -1.0
      ],
      "type": "VEC3"
    },
    {
      "bufferView": 1,
      "byteOffset": 76672,
      "componentType": 5126,
      "count": 544,
      "max": [
        0.4108135402202606,
        0.9808369874954224
      ],
      "min": [
        0.07057685405015945,
        0.9532998204231262
      ],
      "type": "VEC2"
    },
    {
      "bufferView": 1,
      "byteOffset": 81024,
      "componentType": 5126,
      "count": 544,
      "max": [
        0.4108135402202606,
        0.9808369874954224
      ],
      "min": [
        0.07057685405015945,
        0.9532998204231262
      ],
      "type": "VEC2"
    },
    {
      "bufferView": 1,
      "byteOffset": 85376,
      "componentType": 5126,
      "count": 544,
      "max": [
        0.4108135402202606,
        0.9808369874954224
      ],
      "min": [
        0.07057685405015945,
        0.9532998204231262
      ],
      "type": "VEC2"
    },
    {
      "bufferView": 1,
      "byteOffset": 89728,
      "componentType": 5126,
      "count": 544,
      "max": [
        0.4108135402202606,
        0.9808369874954224
      ],
      "min": [
        0.07057685405015945,
        0.9532998204231262
      ],
      "type": "VEC2"
    },
    {
      "bufferView": 0,
      "byteOffset": 29928,
      "componentType": 5125,
      "count": 1644,
      "type": "SCALAR"
    },
    {
      "bufferView": 2,
      "byteOffset": 70560,
      "componentType": 5126,
      "count": 942,
      "max": [
        0.03348710387945175,
        0.10245727002620697,
        0.10245727002620697
      ],
      "min": [
        -0.548130452632904,
        -0.10245727002620697,
        -0.10245727002620697
      ],
      "type": "VEC3"
    },
    {
      "bufferView": 2,
      "byteOffset": 81864,
      "componentType": 5126,
      "count": 942,
      "max": [
        1.0,
        1.0,
        1.0
      ],
      "min": [
        -1.0,
        -1.0,
        -1.0
      ],
      "type": "VEC3"
    },
    {
      "bufferView": 1,
      "byteOffset": 94080,
      "componentType": 5126,
      "count": 942,
      "max": [
        0.42573514580726624,
        0.981577455997467
      ],
      "min": [
        0.3210831582546234,
        0.8444318771362305
      ],
      "type": "VEC2"
    },
    {
      "bufferView": 1,
      "byteOffset": 101616,
      "componentType": 5126,
      "count": 942,
      "max": [
        0.42573514580726624,
        0.981577455997467
      ],
      "min": [
        0.3210831582546234,
        0.8444318771362305
      ],
      "type": "VEC2"
    },
    {
      "bufferView": 1,
      "byteOffset": 109152,
      "componentType": 5126,
      "count": 942,
      "max": [
        0.42573514580726624,
        0.981577455997467
      ],
      "min": [
        0.3210831582546234,
        0.8444318771362305
      ],
      "type": "VEC2"
    },
    {
      "bufferView": 1,
      "byteOffset": 116688,
      "componentType": 5126,
      "count": 942,
      "max": [
        0.42573514580726624,
        0.981577455997467
      ],
      "min": [
        0.3210831582546234,
        0.8444318771362305
      ],
      "type": "VEC2"
    },
    {
      "bufferView": 0,
      "byteOffset": 36504,
      "componentType": 5125,
      "count": 2664,
      "type": "SCALAR"
    },
    {
      "bufferView": 2,
      "byteOffset": 93168,
      "componentType": 5126,
      "count": 288,
      "max": [
        0.04372101649641991,
        0.043631959706544876,
        0.15740790963172913
      ],
      "min": [
        -0.39499205350875854,
        -0.04363194853067398,
        -0.1574079394340515
      ],
      "type": "VEC3"
    },
    {
      "bufferView": 2,
      "byteOffset": 96624,
      "componentType": 5126,
      "count": 288,
      "max": [
        1.0,
        0.995342493057251,
        1.0
      ],
      "min": [
        -1.0,
        -0.9951848387718201,
        -1.0
      ],
      "type": "VEC3"
    },
    {
      "bufferView": 1,
      "byteOffset": 124224,
      "componentType": 5126,
      "count": 288,
      "max": [
        0.42660650610923767,
        0.9681963920593262
      ],
      "min": [
        0.3915814161300659,
        0.9548156261444092
      ],
      "type": "VEC2"
    },
    {
      "bufferView": 1,
      "byteOffset": 126528,
      "componentType": 5126,
      "count": 288,
      "max": [
        0.42660650610923767,
        0.9681963920593262
      ],
      "min": [
        0.3915814161300659,
        0.9548156261444092
      ],
      "type": "VEC2"
    },
    {
      "bufferView": 1,
      "byteOffset": 128832,
      "componentType": 5126,
      "count": 288,
      "max": [
        0.42660650610923767,
        0.9681963920593262
      ],
      "min": [
        0.3915814161300659,
        0.9548156261444092
      ],
      "type": "VEC2"
    },
    {
      "bufferView": 1,
      "byteOffset": 131136,
      "componentType": 5126,
      "count": 288,
      "max": [
        0.42660650610923767,
        0.9681963920593262
      ],
      "min": [
        0.3915814161300659,
        0.9548156261444092
      ],
      "type": "VEC2"
    },
    {
      "bufferView": 0,
      "byteOffset": 47160,
      "componentType": 5125,
      "count": 840,
      "type": "SCALAR"
    },
    {
      "bufferView": 2,
      "byteOffset": 100080,
      "componentType": 5126,
      "count": 942,
      "max": [
        0.03348710387945175,
        0.10245727002620697,
        0.10245727002620697
      ],
      "min": [
        -0.548130452632904,
        -0.10245727002620697,
        -0.10245727002620697
      ],
      "type": "VEC3"
    },
    {
      "bufferView": 2,
      "byteOffset": 111384,
      "componentType": 5126,
      "count": 942,
      "max": [
        1.0,
        1.0,
        1.0
      ],
      "min": [
        -1.0,
        -1.0,
        -1.0
      ],
      "type": "VEC3"
    },
    {
      "bufferView": 1,
      "byteOffset": 133440,
      "componentType": 5126,
      "count": 942,
      "max": [
        0.42573514580726624,
        0.981577455997467
      ],
      "min": [
        0.3210831582546234,
        0.8444318771362305
      ],
      "type": "VEC2"
    },
    {
      "bufferView": 1,
      "byteOffset": 140976,
      "componentType": 5126,
      "count": 942,
      "max": [
        0.42573514580726624,
        0.981577455997467
      ],
      "min": [
        0.3210831582546234,
        0.8444318771362305
      ],
      "type": "VEC2"
    },
    {
      "bufferView": 1,
      "byteOffset": 148512,
      "componentType": 5126,
      "count": 942,
      "max": [
        0.42573514580726624,
        0.981577455997467
      ],
      "min": [
        0.3210831582546234,
        0.8444318771362305
      ],
      "type": "VEC2"
    },
    {
      "bufferView": 1,
      "byteOffset": 156048,
      "componentType": 5126,
      "count": 942,
      "max": [
        0.42573514580726624,
        0.981577455997467
      ],
      "min": [
        0.3210831582546234,
        0.8444318771362305
      ],
      "type": "VEC2"
    },
    {
      "bufferView": 0,
      "byteOffset": 50520,
      "componentType": 5125,
      "count": 2664,
      "type": "SCALAR"
    },
    {
      "bufferView": 2,
      "byteOffset": 122688,
      "componentType": 5126,
      "count": 942,
      "max": [
        0.03348710387945175,
        0.10245727002620697,
        0.10245727002620697
      ],
      "min": [
        -0.548130452632904,
        -0.10245727002620697,
        -0.10245727002620697
      ],
      "type": "VEC3"
    },
    {
      "bufferView": 2,
      "byteOffset": 133992,
      "componentType": 5126,
      "count": 942,
      "max": [
        1.0,
        1.0,
        1.0
      ],
      "min": [
        -1.0,
        -1.0,
        -1.0
      ],
      "type": "VEC3"
    },
    {
      "bufferView": 1,
      "byteOffset": 163584,
      "componentType": 5126,
      "count": 942,
      "max": [
        0.42573514580726624,
        0.981577455997467
      ],
      "min": [
        0.3210831582546234,
        0.8444318771362305
      ],
      "type": "VEC2"
    },
    {
      "bufferView": 1,
      "byteOffset": 171120,
      "componentType": 5126,
      "count": 942,
      "max": [
        0.42573514580726624,
        0.981577455997467
      ],
      "min": [
        0.3210831582546234,
        0.8444318771362305
      ],
      "type": "VEC2"
    },
    {
      "bufferView": 1,
      "byteOffset": 178656,
      "componentType": 5126,
      "count": 942,
      "max": [
        0.42573514580726624,
        0.981577455997467
      ],
      "min": [
        0.3210831582546234,
        0.8444318771362305
      ],
      "type": "VEC2"
    },
    {
      "bufferView": 1,
      "byteOffset": 186192,
      "componentType": 5126,
      "count": 942,
      "max": [
        0.42573514580726624,
        0.981577455997467
      ],
      "min": [
        0.3210831582546234,
        0.8444318771362305
      ],
      "type": "VEC2"
    },
    {
      "bufferView": 0,
      "byteOffset": 61176,
      "componentType": 5125,
      "count": 2664,
      "type": "SCALAR"
    }
  ],
  "asset": {
    "extras": {
      "author": "AndyBegg (https://sketchfab.com/AndyBegg)",
      "license": "SKETCHFAB Standard (https://sketchfab.com/licenses)",
      "source": "https://sketchfab.com/3d-models/delivery-robot-980a192825b54d4ab520ecff50aab3b4",
      "title": "Delivery Robot"
    },
    "generator": "Sketchfab-15.12.0",
    "version": "2.0"
  },
  "bufferViews": [
    {
      "buffer": 0,
      "byteLength": 71832,
      "name": "floatBufferViews",
      "target": 34963
    },
    {
      "buffer": 0,
      "byteLength": 193728,
      "byteOffset": 71832,
      "byteStride": 8,
      "name": "floatBufferViews",
      "target": 34962
    },
    {
      "buffer": 0,
      "byteLength": 145296,
      "byteOffset": 265560,
      "byteStride": 12,
      "name": "floatBufferViews",
      "target": 34962
    }
  ],
  "buffers": [
    {
      "byteLength": 410856,
      "uri": "scene.bin"
    }
  ],
  "extensionsUsed": [
    "KHR_materials_emissive_strength"
  ],
  "images": [
    {
      "uri": "textures/Pallet_baseColor.png"
    },
    {
      "uri": "textures/Pallet_metallicRoughness.png"
    },
    {
      "uri": "textures/Pallet_emissive.png"
    }
  ],
  "materials": [
    {
      "alphaMode": "BLEND",
      "doubleSided": true,
      "emissiveFactor": [
        1.0,
        1.0,
        1.0
      ],
      "emissiveTexture": {
        "index": 2
      },
      "extensions": {
        "KHR_materials_emissive_strength": {
          "emissiveStrength": 2.971437627238483
        }
      },
      "name": "Pallet",
      "pbrMetallicRoughness": {
        "baseColorTexture": {
          "index": 0
        },
        "metallicRoughnessTexture": {
          "index": 1
        },
        "roughnessFactor": 0.7603832697394887
      }
    }
  ],
  "meshes": [
    {
      "name": "Object_0",
      "primitives": [
        {
          "attributes": {
            "NORMAL": 1,
            "POSITION": 0,
            "TEXCOORD_0": 2,
            "TEXCOORD_1": 3,
            "TEXCOORD_2": 4,
            "TEXCOORD_3": 5
          },
          "indices": 6,
          "material": 0,
          "mode": 4
        }
      ]
    },
    {
      "name": "Object_1",
      "primitives": [
        {
          "attributes": {
            "NORMAL": 8,
            "POSITION": 7,
            "TEXCOORD_0": 9,
            "TEXCOORD_1": 10,
            "TEXCOORD_2": 11,
            "TEXCOORD_3": 12
          },
          "indices": 13,
          "material": 0,
          "mode": 4
        }
      ]
    },
    {
      "name": "Object_2",
      "primitives": [
        {
          "attributes": {
            "NORMAL": 15,
            "POSITION": 14,
            "TEXCOORD_0": 16,
            "TEXCOORD_1": 17,
            "TEXCOORD_2": 18,
            "TEXCOORD_3": 19
          },
          "indices": 20,
          "material": 0,
          "mode": 4
        }
      ]
    },
    {
      "name": "Object_3",
      "primitives": [
        {
          "attributes": {
            "NORMAL": 22,
            "POSITION": 21,
            "TEXCOORD_0": 23,
            "TEXCOORD_1": 24,
            "TEXCOORD_2": 25,
            "TEXCOORD_3": 26
          },
          "indices": 27,
          "material": 0,
          "mode": 4
        }
      ]
    },
    {
      "name": "Object_4",
      "primitives": [
        {
          "attributes": {
            "NORMAL": 29,
            "POSITION": 28,
            "TEXCOORD_0": 30,
            "TEXCOORD_1": 31,
            "TEXCOORD_2": 32,
            "TEXCOORD_3": 33
          },
          "indices": 34,
          "material": 0,
          "mode": 4
        }
      ]
    },
    {
      "name": "Object_5",
      "primitives": [
        {
          "attributes": {
            "NORMAL": 36,
            "POSITION": 35,
            "TEXCOORD_0": 37,
            "TEXCOORD_1": 38,
            "TEXCOORD_2": 39,
            "TEXCOORD_3": 40
          },
          "indices": 41,
          "material": 0,
          "mode": 4
        }
      ]
    },
    {
      "name": "Object_6",
      "primitives": [
        {
          "attributes": {
            "NORMAL": 43,
            "POSITION": 42,
            "TEXCOORD_0": 44,
            "TEXCOORD_1": 45,
            "TEXCOORD_2": 46,
            "TEXCOORD_3": 47
          },
          "indices": 48,
          "material": 0,
          "mode": 4
        }
      ]
    }
  ],
  "nodes": [
    {
      "children": [
        1
      ],
      "matrix": [
        1.0,
        0.0,
        0.0,
        0.0,
        0.0,
        2.220446049250313e-16,
        -1.0,
        0.0,
        0.0,
        1.0,
        2.220446049250313e-16,
        0.0,
        0.0,
        0.0,
        0.0,
        1.0
      ],
      "name": "Sketchfab_model"
    },
    {
      "children": [
        2
      ],
      "name": "root"
    },
    {
      "children": [
        3
      ],
      "matrix": [
        1.0,
        0.0,
        0.0,
        0.0,
        0.0,
        2.220446049250313e-16,
        1.0,
        0.0,
        0.0,
        -1.0,
        2.220446049250313e-16,
        0.0,
        0.0,
        0.0,
        0.0,
        1.0
      ],
      "name": "GLTF_SceneRootNode"
    },
    {
      "children": [
        4,
        5,
        7,
        9,
        11
      ],
      "name": "Delivery_Robot_6"
    },
    {
      "mesh": 0,
      "name": "Object_4"
    },
    {
      "children": [
        6
      ],
      "matrix": [
        -8.403602524964526e-08,
        -0.9877914214972647,
        0.15578224422701648,
        0.0,
        0.9999999999999964,
        -8.403602524964526e-08,
        6.585862327712633e-09,
        0.0,
        6.585862327712633e-09,
        0.15578224422701648,
        0.9877914214972684,
        0.0,
        -0.22723346948623657,
        0.40568676590919495,
        0.11725427955389023,
        1.0
      ],
      "name": "Flag_0"
    },
    {
      "mesh": 1,
      "name": "Object_6"
    },
    {
      "children": [
        8
      ],
      "matrix": [
        1.0,
        0.0,
        0.0,
        0.0,
        0.0,
        1.0,
        0.0,
        0.0,
        0.0,
        0.0,
        1.0,
        0.0,
        0.0,
        0.45795878767967224,
        0.28387612104415894,
        1.0
      ],
      "name": "Lid_1"
    },
    {
      "mesh": 2,
      "name": "Object_8"
    },
    {
      "children": [
        10
      ],
      "matrix": [
        1.0,
        0.0,
        0.0,
        0.0,
        0.0,
        1.0,
        0.0,
        0.0,
        0.0,
        0.0,
        1.0,
        0.0,
        0.25732168555259705,
        0.09746479988098145,
        0.23672565817832947,
        1.0
      ],
      "name": "Wheel_Front_2"
    },
    {
      "mesh": 3,
      "name": "Object_10"
    },
    {
      "children": [
        12,
        13,
        15
      ],
      "matrix": [
        1.0,
        0.0,
        0.0,
        0.0,
        0.0,
        1.0,
        0.0,
        0.0,
        0.0,
        0.0,
        1.0,
        0.0,
        0.17563551664352417,
        0.09746482968330383,
        -0.10358517616987228,
        1.0
      ],
      "name": "Wheel_Hub_5"
    },
    {
      "mesh": 4,
      "name": "Object_12"
    },
    {
      "children": [
        14
      ],
      "matrix": [
        1.0,
        0.0,
        0.0,
        0.0,
        0.0,
        1.0,
        0.0,
        0.0,
        0.0,
        0.0,
        1.0,
        0.0,
        0.08168616890907288,
        0.0,
        -0.11377587169408798,
        1.0
      ],
      "name": "Wheel_Back_3"
    },
    {
      "mesh": 5,
      "name": "Object_14"
    },
    {
      "children": [
        16
      ],
      "matrix": [
        1.0,
        0.0,
        0.0,
        0.0,
        0.0,
        1.0,
        0.0,
        0.0,
        0.0,
        0.0,
        1.0,
        0.0,
        0.08168616890907288,
        0.0,
        0.1139034554362297,
        1.0
      ],
      "name": "Wheel_Mid_4"
    },
    {
      "mesh": 6,
      "name": "Object_16"
    }
  ],
  "samplers": [
    {
      "magFilter": 9729,
      "minFilter": 9987,
      "wrapS": 10497,
      "wrapT": 10497
    }
  ],
  "scene": 0,
  "scenes": [
    {
      "name": "Sketchfab_Scene",
      "nodes": [
        0
      ]
    }
  ],
  "textures": [
    {
      "sampler": 0,
      "source": 0
    },
    {
      "sampler": 0,
      "source": 1
    },
    {
      "sampler": 0,
      "source": 2
    }
  ]
}
